<svg xmlns="http://www.w3.org/2000/svg" viewBox="0 0 40 74" width="40" height="74"><title>Dana (help desk manager)</title><ellipse cx="20.4" cy="69.6" rx="10.5" ry="3.6" fill="#111418" opacity="0.14"/><rect x="21" y="52.9" width="5.4" height="13" rx="2" fill="#2A323B"/><rect x="14.2" y="52.9" width="5.6" height="14.4" rx="2" fill="#333C46"/><path d="M20.4 65.1h5.8q3 0 3 2.2t-2 1.8h-6.8Z" fill="#4A3428"/><path d="M13.4 66.5h6.4q3.2 0 3.2 2.3t-2 1.7h-7.6Z" fill="#4A3428"/><path d="M28.4 39.4c2.8 1.4 3.8 5 3.6 8.8l-3.4.4c0-2.8-.6-5.4-1.8-7Z" fill="#0A4C45"/><path d="M31.6 48.4c.2-1.6 .6-3 1.2-3.8l-1.8-1.8c-1.4 1.2-2.2 3.2-2.6 5.8Z" fill="#0A4C45"/><path d="M12.4 57.8C11.2 50 9.8 43 10.8 39.6C11.8 36.4 15 35.6 20 35.6C25 35.6 28.4 36.4 29.4 39.6C30.4 43 29.4 50 28.6 57.8Z" fill="#F6F8F9"/><path d="M12.4 57.8C11.2 50 9.8 43 10.8 39.6C11.8 36.4 15 35.6 19.6 35.6L21.4 38.4L21 57.8Z" fill="#0F6A61"/><path d="M12.4 57.8C11.2 50 9.8 43 10.8 39.6C11.4 37.4 13.2 36.2 16 35.8C14.4 42 14.6 50 15.6 57.8Z" fill="#1E7A70"/><path d="M28.6 57.8C29.4 50 30.4 43 29.4 39.6C28.8 37.4 27.4 36.2 25.4 35.8L25 38.8L25.4 57.8Z" fill="#0C5C54"/><path d="M21.4 38.4L21 57.8" fill="none" stroke="#0A4C45" stroke-width="0.6" stroke-linecap="round" stroke-linejoin="round"/><rect x="12.3" y="55.6" width="8.8" height="2.4" rx="1.2" fill="#0A4C45"/><rect x="25.3" y="55.6" width="3.4" height="2.4" rx="1.2" fill="#0A4C45"/><path d="M19.4 35.6L23.2 39.8L26 35.6Z" fill="#653B25"/><path d="M18.6 36.2L22.8 45.4L26.4 36.2" fill="none" stroke="#F26B1D" stroke-width="0.9" stroke-linecap="round" stroke-linejoin="round"/><rect x="20.4" y="45" width="5" height="6.4" rx="0.7" fill="#FFFFFF"/><rect x="20.4" y="45" width="5" height="1.6" rx="0.6" fill="#0F6A61"/><circle cx="22.9" cy="48.4" r="1" fill="#C9D1D6"/><rect x="21.4" y="50" width="3" height="0.5" fill="#C9D1D6"/><path d="M11.2 38.8c-2.8 1.6-3.8 8-3.4 14.6h4.6c-.2-5 .4-9.8 1.8-12.6Z" fill="#1E7A70"/><path d="M12.4 53.4c-.2-5 .4-9.8 1.8-12.6" fill="none" stroke="#0A4C45" stroke-width="0.7" stroke-linecap="round" stroke-linejoin="round"/><circle cx="10" cy="55.2" r="2.4" fill="#7A4A30"/><path d="M31.4 40.4h5.2v5.6q0 1.6-1.6 1.6h-2q-1.6 0-1.6-1.6Z" fill="#FFFFFF"/><path d="M34.8 40.4h1.8v5.6q0 1.6-1.6 1.6h-.2Z" fill="#E3E7EA"/><rect x="31.4" y="42.4" width="5.2" height="1.4" fill="#0F6A61"/><path d="M36.6 41.6a1.7 1.7 0 0 1 0 3.4" fill="none" stroke="#C9D1D6" stroke-width="0.9" stroke-linecap="round" stroke-linejoin="round"/><circle cx="31.8" cy="44.6" r="2.2" fill="#7A4A30"/><path d="M33.199999999999996 38.4q-1.2-1.6 0-3t0-3M35.199999999999996 38q-1-1.2 0-2.4" fill="none" stroke="#C9D1D6" stroke-width="0.7" stroke-linecap="round" stroke-linejoin="round"/><rect x="18.4" y="28.9" width="5.4" height="7" rx="2" fill="#653B25"/><circle cx="18.8" cy="6.9" r="6.6" fill="#1E1612"/><circle cx="16.4" cy="5.3" r="2.6" fill="#3A2B24" opacity=".55"/><ellipse cx="21" cy="20.5" rx="12.4" ry="11.8" fill="#7A4A30"/><path d="M28.8 11.7a12.4 11.8 0 0 1 0 17.6a14 14 0 0 0 0 -17.6Z" fill="#653B25" opacity=".55"/><path d="M9.4 26.9C7.2 18 8.6 10.6 14.4 7.8C18.6 5.8 25.6 6 29.6 8.6C33 10.8 34.4 14.4 33.8 17.8C31.6 15.6 28.6 14.6 25.8 14.8C22.6 14 18.4 14.6 16 16.8C14.3 18.2 13.5 20.4 13.4 22.8L11.4 24.6Z" fill="#1E1612"/><path d="M15.2 12.9C18.4 8.8 23.6 8.4 27.6 9.8" fill="none" stroke="#3A2B24" stroke-width="1.2" stroke-linecap="round" stroke-linejoin="round" opacity=".8"/><rect x="14.4" y="11.5" width="8.8" height="2.2" rx="1.1" fill="#0F6A61"/><ellipse cx="10.6" cy="22.1" rx="2.2" ry="2.9" fill="#7A4A30"/><path d="M10 20.9q1.4 1.2 0 2.6" fill="none" stroke="#653B25" stroke-width="0.8" stroke-linecap="round" stroke-linejoin="round"/><ellipse cx="22.6" cy="21.7" rx="1.35" ry="1.8" fill="#111418"/><ellipse cx="28.6" cy="21.7" rx="1.2" ry="1.75" fill="#111418"/><circle cx="23.05" cy="21.1" r="0.45" fill="#FFFFFF"/><circle cx="29" cy="21.1" r="0.42" fill="#FFFFFF"/><path d="M24.3 25.7q1.7 1.6 3.4 0" fill="none" stroke="#111418" stroke-width="0.85" stroke-linecap="round" stroke-linejoin="round"/><circle cx="20" cy="24.9" r="1.5" fill="#D0706A" opacity=".45"/><circle cx="30.6" cy="24.7" r="1.2" fill="#D0706A" opacity=".45"/><g fill="none" stroke="#3A4149" stroke-width=".7"><rect x="20" y="19.3" width="5.2" height="4.4" rx="1.6"/><rect x="26.4" y="19.3" width="4.6" height="4.4" rx="1.6"/><path d="M25.2 21.1h1.2M20 20.9l-3.6 -.8"/></g><path d="M20.6 17.5q1.4-.8 2.8-.2M26.8 17.3q1.3-.6 2.6 0" fill="none" stroke="#1E1612" stroke-width="0.8" stroke-linecap="round" stroke-linejoin="round"/><circle cx="10.8" cy="24.9" r="0.9" fill="#F2C14E"/></svg>