<svg xmlns="http://www.w3.org/2000/svg" viewBox="0 0 40 74" width="40" height="74"><g stroke-linecap="round" stroke-linejoin="round"><ellipse cx="20.4" cy="69.6" rx="10.5" ry="3.6" fill="#111418" opacity=".1"/><rect x="21" y="52.9" width="5.4" height="13" rx="2" fill="#2A333E"/><rect x="14.2" y="52.9" width="5.6" height="14.4" rx="2" fill="#34404E"/><path d="M20.6 65.2h5.2q3 0 3 2.1v.8h-8.2Z" fill="#0A4C45"/><rect x="20.6" y="67.4" width="8.2" height="1.3" rx=".7" fill="#C9D1D6"/><path d="M13.6 66.6h5.8q3.2 0 3.2 2.1v.8h-9Z" fill="#0A4C45"/><rect x="13.6" y="68.8" width="9" height="1.4" rx=".7" fill="#C9D1D6"/><path d="M15.8 67.4h2.4M22.6 66h2.2" fill="none" stroke="#3F8F86" stroke-width=".6"/><path d="M28.4 39.4c2.8 1.4 3.8 5 3.6 8.8l-3.4 .4c0-2.8-.6-5.4-1.8-7Z" fill="#4F877F"/><path d="M31.8 48.6c.3-1.8 .6-3.2 1.4-4.2l-2-1.6c-1.4 1.2-2.2 3.2-2.6 5.6Z" fill="#4F877F"/><path d="M16.6 57.8L16.8 36.2Q20.8 35 24.8 36.2L25.4 57.8Z" fill="#F6F8F9"/><path d="M12.4 57.8C11.2 50.8 9.8 43 10.8 39.6C11.8 36.4 15 35.6 17.6 35.4L20 44.6L19.8 57.8Z" fill="#6BA69D"/><path d="M12.4 57.8C11.2 50.8 9.8 43 10.8 39.6C11.4 37.4 13.2 36.2 15.6 35.7C14.4 41.6 14.4 50.8 15.2 57.8Z" fill="#86BAB1"/><path d="M28.6 57.8C29.4 50.8 30.4 43 29.4 39.6C28.6 36.6 26.4 35.6 24.2 35.4L22.4 44.6L22.8 57.8Z" fill="#4F877F"/><path d="M17.6 35.4L15.6 39.2L17.4 39.6L16.8 41.2L20 44.6Z" fill="#86BAB1"/><path d="M24.2 35.4L26 39L24.6 39.4L25 41L22.4 44.6Z" fill="#6BA69D"/><path d="M20 44.6L19.8 57.8M22.4 44.6L22.8 57.8" fill="none" stroke="#3F7169" stroke-width=".5"/><circle cx="21.2" cy="49.4" r=".8" fill="#3F7169"/><path d="M12.6 52.6h4.6M24.4 52.6h3.8" fill="none" stroke="#3F7169" stroke-width=".5" opacity=".8"/><path d="M17.2 34.2Q21 36.6 25 34.2L25.4 35.8Q21 38.6 16.8 35.8Z" fill="#F26B1D"/><path d="M20.2 36.4L18.6 42.4L20.8 41.4Z" fill="#C2410C"/><path d="M21.2 36.4L23.4 42.6L21.2 41.8Z" fill="#F26B1D"/><circle cx="20.9" cy="36.6" r="1.4" fill="#FF8D4A"/><rect x="26.2" y="42" width="1.6" height="1.8" rx=".4" fill="#9AA6AF"/><rect x="24.8" y="43.4" width="4.4" height="5.6" rx=".7" fill="#FFFFFF"/><rect x="24.8" y="43.4" width="4.4" height="1.5" rx=".6" fill="#0F6A61"/><circle cx="27" cy="46.2" r=".8" fill="#C9D1D6"/><rect x="25.7" y="47.5" width="2.6" height=".6" rx=".3" fill="#C9D1D6"/><g transform="rotate(-8 33.4 41.4)"><rect x="30.2" y="38.6" width="6.8" height="6.4" rx=".5" fill="#D9A53A"/><rect x="30" y="38" width="6.8" height="6" rx=".5" fill="#F2C14E"/><path d="M31.2 39.8h4.2M31.2 41.2h3M31.2 42.6h3.6" fill="none" stroke="#5F6B76" stroke-width=".4" opacity=".75"/><path d="M36.8 42.4l-1.8 1.6h1.8Z" fill="#FFE08A"/></g><circle cx="33.2" cy="44.2" r="1.9" fill="#D6A07A"/><path d="M34.6 43.2a1.9 1.9 0 0 1-.4 2.6a1.9 1.9 0 0 0 .4-2.6Z" fill="#BA8460"/><path d="M11.2 38.8c-2.8 1.6-3.8 8-3.4 14.6h4.6c-.2-5 .4-9.8 1.8-12.6Z" fill="#86BAB1"/><path d="M11.8 53.2c-.1-4.4 .4-8.6 1.6-11.6" fill="none" stroke="#6BA69D" stroke-width=".5"/><rect x="7.9" y="52.6" width="4" height="2.4" rx="1" fill="#D6A07A"/><g transform="rotate(-24 10.4 56)"><rect x="9.3" y="55" width="2.2" height="6.6" rx=".9" fill="#0F6A61"/><rect x="9.3" y="60" width="2.2" height="1.6" rx=".8" fill="#0A4C45"/><rect x="9.7" y="61.3" width="1.4" height="1.1" rx=".4" fill="#111418"/></g><circle cx="10" cy="55.2" r="2.3" fill="#D6A07A"/><path d="M11.6 53.9a2.3 2.3 0 0 1-.4 3.2a2.3 2.3 0 0 0 .4-3.2Z" fill="#BA8460"/><g transform="rotate(-12 10.6 44)"><rect x="8.6" y="42.2" width="4" height="3.8" rx=".3" fill="#FFC19A"/><path d="M9.4 43.6h2.2M9.4 44.8h1.6" fill="none" stroke="#C2410C" stroke-width=".4"/></g><rect x="18.4" y="28.4" width="5.4" height="7.4" rx="2" fill="#BA8460"/><path d="M8.6 21C7.8 13.4 12 7.4 19.6 6.6C27.6 5.8 33.8 10 34.4 17.2C34.8 21.6 34 26.2 32.6 29.4L28.4 29.6L13.6 30L9.4 28.8C8.8 26.4 8.6 23.6 8.6 21Z" fill="#AEB8BF"/><ellipse cx="21" cy="20.4" rx="12.2" ry="11.6" fill="#D6A07A"/><path d="M28.8 11.6a12.2 11.6 0 0 1 0 17.4a14 14 0 0 0 0-17.4Z" fill="#BA8460" opacity=".5"/><ellipse cx="22.8" cy="21.2" rx="1.3" ry="1.7" fill="#111418"/><ellipse cx="28.6" cy="21.2" rx="1.2" ry="1.6" fill="#111418"/><circle cx="23.2" cy="20.6" r=".4" fill="#FFFFFF"/><circle cx="29" cy="20.6" r=".4" fill="#FFFFFF"/><path d="M20.8 18q1.8-.9 3.6-.3M26.9 17.8q1.6-.6 3.2 .1" fill="none" stroke="#8D969D" stroke-width=".9"/><circle cx="20" cy="24.4" r="1.4" fill="#D98A78" opacity=".4"/><circle cx="30.6" cy="24.2" r="1.1" fill="#D98A78" opacity=".4"/><path d="M22.6 24.8q.2 1.4 1 2.2M30.2 24.6q-.2 1.2-.8 2" fill="none" stroke="#BA8460" stroke-width=".4" opacity=".55"/><path d="M23.8 25.6Q26.4 28.6 29.2 25.4Q26.4 26.6 23.8 25.6Z" fill="#A85B4B" stroke="#A85B4B" stroke-width=".7"/><path d="M24.6 26Q26.4 27 28.4 25.9" fill="none" stroke="#FFFFFF" stroke-width=".5" opacity=".9"/><path d="M8.8 22.8C8 16.4 10.4 10.4 15.6 7.8C19.8 5.8 25.8 6 29.8 8.6C32.8 10.6 34.4 13.6 34.6 16.8C33 14.6 30.6 13.6 28.4 13.4C25.2 13.2 21.4 14.2 18.6 15.8C17.2 16.6 15.6 16.8 14.4 16.4L14.6 22.4C14.8 25.2 14.2 27.8 12.8 29.8C11 29.6 9.6 28.8 9 27.8C8.8 26.2 8.8 24.4 8.8 22.8Z" fill="#D5DBDF"/><path d="M30.4 12.4C33.2 13.6 34.9 16.6 35 20.2C35.1 23.8 34.4 27.2 32.8 29.8C31.6 30.2 30.6 29.8 30.2 29C31.4 26.2 32 22.8 31.8 19.6C31.6 16.8 30.8 14.4 29.4 13Z" fill="#D5DBDF"/><path d="M32.6 16.4C33.6 19.6 33.6 24 32.2 27.8" fill="none" stroke="#9AA6AF" stroke-width=".5" opacity=".7"/><path d="M16.6 9.2C21 7.4 26.8 7.8 30.4 10.6" fill="none" stroke="#F3F5F6" stroke-width="1.1" opacity=".95"/><path d="M13.6 12.4C15.8 10.4 18.8 9.6 21.4 9.6" fill="none" stroke="#F3F5F6" stroke-width=".7" opacity=".8"/><path d="M18.6 15.6C21.6 13.4 26 12.6 29.8 13.4M11.2 17.4C11 21 11.4 24.6 12.6 28" fill="none" stroke="#9AA6AF" stroke-width=".5" opacity=".7"/><ellipse cx="12.2" cy="30.6" rx="1" ry="1.3" fill="none" stroke="#D9B44A" stroke-width=".6"/><circle cx="19.6" cy="7.8" r="2" fill="#EAF3F6" opacity=".8" stroke="#3A4149" stroke-width=".7"/><circle cx="24.6" cy="7.6" r="1.9" fill="#EAF3F6" opacity=".8" stroke="#3A4149" stroke-width=".7"/><path d="M21.6 7.6q.6-.5 1.1 0M17.6 8l-2 1.3" fill="none" stroke="#3A4149" stroke-width=".6"/><path d="M18.8 7.1l.8-.8M23.9 6.9l.7-.7" fill="none" stroke="#FFFFFF" stroke-width=".4" opacity=".9"/></g></svg>