<svg xmlns="http://www.w3.org/2000/svg" viewBox="0 0 44 96" width="44" height="96"><path d="M21.36 81.24 36.72 88.92 22.64 95.96 7.28 88.28Z" fill="#111418" opacity="0.1"/><path d="M7.28 11.98 22.64 19.66 22.64 95.66 7.28 87.98Z" fill="#2B3238" stroke="#2B3238" stroke-width=".35" stroke-linejoin="round"/><path d="M22.64 19.66 36.72 12.62 36.72 88.62 22.64 95.66Z" fill="#1C2126" stroke="#1C2126" stroke-width=".35" stroke-linejoin="round"/><path d="M21.36 4.94 36.72 12.62 22.64 19.66 7.28 11.98Z" fill="#4A545E" stroke="#4A545E" stroke-width=".35" stroke-linejoin="round"/><path d="M7.28 11.98 22.64 19.66 36.72 12.62" fill="none" stroke="#667380" stroke-width="0.6" stroke-linecap="round" stroke-linejoin="round"/><g transform="matrix(1 .5 0 1 7.28 11.98)"><rect x="1" y="1.2" width="13.36" height="72.5" rx="1" fill="#20262C"/><path d="M1.5 2V73" fill="none" stroke="#3A4149" stroke-width="0.6" stroke-linecap="round" stroke-linejoin="round"/><path d="M13.86 2V73" fill="none" stroke="#3A4149" stroke-width="0.6" stroke-linecap="round" stroke-linejoin="round"/><rect x="1.9" y="3.2" width="11.56" height="4" rx="0.5" fill="#DCE2E6"/><rect x="1.9" y="3.2" width="11.56" height="0.7" rx="0.35" fill="#FFFFFF"/><rect x="2.5" y="4.8" width="1.2" height="1.2" rx="0.2" fill="#2B3238"/><rect x="4.32" y="4.8" width="1.2" height="1.2" rx="0.2" fill="#2B3238"/><rect x="6.14" y="4.8" width="1.2" height="1.2" rx="0.2" fill="#2B3238"/><rect x="7.96" y="4.8" width="1.2" height="1.2" rx="0.2" fill="#2B3238"/><rect x="9.78" y="4.8" width="1.2" height="1.2" rx="0.2" fill="#2B3238"/><rect x="11.6" y="4.8" width="1.2" height="1.2" rx="0.2" fill="#2B3238"/><rect x="2.6" y="6" width="1" height="1.6" rx="0.3" fill="#0F6A61"/><rect x="4.42" y="6" width="1" height="1.6" rx="0.3" fill="#F26B1D"/><rect x="6.24" y="6" width="1" height="1.6" rx="0.3" fill="#F2C14E"/><rect x="8.06" y="6" width="1" height="1.6" rx="0.3" fill="#0F6A61"/><rect x="11.7" y="6" width="1" height="1.6" rx="0.3" fill="#C9D1D6"/><rect x="1.9" y="13" width="11.56" height="4.6" rx="0.6" fill="#39424B"/><rect x="1.9" y="13" width="11.56" height="0.8" rx="0.4" fill="#4F5A65"/><rect x="2.6" y="15.2" width="0.9" height="1" rx="0.15" fill="#1C2126"/><rect x="3.94" y="15.2" width="0.9" height="1" rx="0.15" fill="#1C2126"/><rect x="5.28" y="15.2" width="0.9" height="1" rx="0.15" fill="#1C2126"/><rect x="6.62" y="15.2" width="0.9" height="1" rx="0.15" fill="#1C2126"/><rect x="7.96" y="15.2" width="0.9" height="1" rx="0.15" fill="#1C2126"/><rect x="9.3" y="15.2" width="0.9" height="1" rx="0.15" fill="#1C2126"/><rect x="10.64" y="15.2" width="0.9" height="1" rx="0.15" fill="#1C2126"/><rect x="11.98" y="15.2" width="0.9" height="1" rx="0.15" fill="#1C2126"/><circle cx="3.05" cy="14.5" r="0.42" fill="#43E0C4"/><circle cx="4.39" cy="14.5" r="0.42" fill="#43E0C4"/><circle cx="5.73" cy="14.5" r="0.42" fill="#FF8A3D"/><circle cx="7.07" cy="14.5" r="0.42" fill="#43E0C4"/><circle cx="9.75" cy="14.5" r="0.42" fill="#43E0C4"/><path d="M3.1 7.4C2.6 10 3 12 3.3 15.2" fill="none" stroke="#0F6A61" stroke-width="0.85" stroke-linecap="round" stroke-linejoin="round"/><path d="M4.9 7.4C4.6 10.4 5.6 12.2 4.6 15.2" fill="none" stroke="#F26B1D" stroke-width="0.85" stroke-linecap="round" stroke-linejoin="round"/><path d="M6.7 7.4C7 10.6 6.2 12.4 6 15.2" fill="none" stroke="#F2C14E" stroke-width="0.85" stroke-linecap="round" stroke-linejoin="round"/><path d="M8.5 7.4C9 10.6 8.2 12.6 7.3 15.2" fill="none" stroke="#0F6A61" stroke-width="0.85" stroke-linecap="round" stroke-linejoin="round"/><path d="M12.1 7.4C12.6 10 10.6 12.6 10 15.2" fill="none" stroke="#C9D1D6" stroke-width="0.85" stroke-linecap="round" stroke-linejoin="round"/><rect x="1.9" y="20.8" width="11.56" height="4" rx="0.5" fill="#DCE2E6"/><rect x="1.9" y="20.8" width="11.56" height="0.7" rx="0.35" fill="#FFFFFF"/><rect x="2.5" y="22.4" width="1.2" height="1.2" rx="0.2" fill="#2B3238"/><rect x="4.32" y="22.4" width="1.2" height="1.2" rx="0.2" fill="#2B3238"/><rect x="6.14" y="22.4" width="1.2" height="1.2" rx="0.2" fill="#2B3238"/><rect x="7.96" y="22.4" width="1.2" height="1.2" rx="0.2" fill="#2B3238"/><rect x="9.78" y="22.4" width="1.2" height="1.2" rx="0.2" fill="#2B3238"/><rect x="11.6" y="22.4" width="1.2" height="1.2" rx="0.2" fill="#2B3238"/><rect x="2.6" y="23.6" width="1" height="1.6" rx="0.3" fill="#C9D1D6"/><rect x="4.42" y="23.6" width="1" height="1.6" rx="0.3" fill="#0F6A61"/><rect x="8.06" y="23.6" width="1" height="1.6" rx="0.3" fill="#F26B1D"/><rect x="9.88" y="23.6" width="1" height="1.6" rx="0.3" fill="#0F6A61"/><rect x="11.7" y="23.6" width="1" height="1.6" rx="0.3" fill="#F2C14E"/><rect x="1.9" y="30.4" width="11.56" height="4.6" rx="0.6" fill="#39424B"/><rect x="1.9" y="30.4" width="11.56" height="0.8" rx="0.4" fill="#4F5A65"/><rect x="2.6" y="32.6" width="0.9" height="1" rx="0.15" fill="#1C2126"/><rect x="3.94" y="32.6" width="0.9" height="1" rx="0.15" fill="#1C2126"/><rect x="5.28" y="32.6" width="0.9" height="1" rx="0.15" fill="#1C2126"/><rect x="6.62" y="32.6" width="0.9" height="1" rx="0.15" fill="#1C2126"/><rect x="7.96" y="32.6" width="0.9" height="1" rx="0.15" fill="#1C2126"/><rect x="9.3" y="32.6" width="0.9" height="1" rx="0.15" fill="#1C2126"/><rect x="10.64" y="32.6" width="0.9" height="1" rx="0.15" fill="#1C2126"/><rect x="11.98" y="32.6" width="0.9" height="1" rx="0.15" fill="#1C2126"/><circle cx="4.39" cy="31.9" r="0.42" fill="#43E0C4"/><circle cx="5.73" cy="31.9" r="0.42" fill="#43E0C4"/><circle cx="8.41" cy="31.9" r="0.42" fill="#FF8A3D"/><circle cx="11.09" cy="31.9" r="0.42" fill="#43E0C4"/><path d="M4.9 25C4 28 4.4 30 4.6 32.6" fill="none" stroke="#0F6A61" stroke-width="0.85" stroke-linecap="round" stroke-linejoin="round"/><path d="M8.5 25C9.4 28 8.4 30.4 8.6 32.6" fill="none" stroke="#F26B1D" stroke-width="0.85" stroke-linecap="round" stroke-linejoin="round"/><path d="M10.3 25C11.2 28.6 10.6 30.4 9.9 32.6" fill="none" stroke="#0F6A61" stroke-width="0.85" stroke-linecap="round" stroke-linejoin="round"/><path d="M12.1 25C13 28.4 12.4 30.4 11.2 32.6" fill="none" stroke="#F2C14E" stroke-width="0.85" stroke-linecap="round" stroke-linejoin="round"/><path d="M3.3 35C1.6 40 6 43 3.4 47C1.8 49.6 5.6 51 6.4 49" fill="none" stroke="#F26B1D" stroke-width="0.9" stroke-linecap="round" stroke-linejoin="round"/><path d="M4.6 35C6.4 39.6 2.2 42.6 5.2 45.4C8 48 11.6 44.4 9 42" fill="none" stroke="#0F6A61" stroke-width="0.9" stroke-linecap="round" stroke-linejoin="round"/><path d="M6 35C8.6 38.6 12.8 39.6 11.4 44C10.4 47 6.8 46.2 7.6 50.6" fill="none" stroke="#F2C14E" stroke-width="0.9" stroke-linecap="round" stroke-linejoin="round"/><path d="M8.6 35C7.4 38.4 9.8 41.2 12.2 41.6C13.6 44 12.6 48 10.4 50.4" fill="none" stroke="#C9D1D6" stroke-width="0.85" stroke-linecap="round" stroke-linejoin="round"/><path d="M9.9 35C10.6 37.4 5.2 38.8 4.2 41.6C3.4 44 7.2 44.4 8.6 46.8" fill="none" stroke="#0F6A61" stroke-width="0.85" stroke-linecap="round" stroke-linejoin="round"/><path d="M9.6 46.4l1.2 2.2" fill="none" stroke="#6B7780" stroke-width="0.35" stroke-linecap="round" stroke-linejoin="round"/><rect x="9.4" y="48.4" width="3.8" height="3" rx="0.5" fill="#F26B1D" transform="rotate(-12 11.3 49.9)"/><path d="M10.9 49.32 C10.98 49.01 11.17 48.9 11.32 48.9 C11.59 48.9 11.74 49.09 11.74 49.36 C11.74 49.74 11.3 49.77 11.3 50.19 M11.3 50.71 V50.72" fill="none" stroke="#111418" stroke-width="0.5" stroke-linecap="round" stroke-linejoin="round"/><rect x="1.9" y="53.6" width="11.56" height="4.2" rx="0.6" fill="#39424B"/><rect x="1.9" y="53.6" width="11.56" height="0.8" rx="0.4" fill="#4F5A65"/><circle cx="3.6" cy="55.9" r="0.6" fill="#43E0C4"/><circle cx="5.4" cy="55.9" r="0.6" fill="#FF8A3D"/><path d="M7.4 55.2h4.6M7.4 56.6h4.6" fill="none" stroke="#232A30" stroke-width="0.6" stroke-linecap="round" stroke-linejoin="round"/><rect x="1.9" y="60" width="11.56" height="11.6" rx="0.8" fill="#39424B"/><rect x="1.9" y="60" width="11.56" height="0.8" rx="0.4" fill="#4F5A65"/><rect x="3.4" y="62.2" width="6" height="3.2" rx="0.4" fill="#0E2A2B"/><rect x="4.2" y="63.2" width="3.8" height="1.2" rx="0.3" fill="#43E0C4" opacity=".8"/><circle cx="11.2" cy="63.8" r="0.7" fill="#43E0C4"/><path d="M3.4 67.8h8.6M3.4 69.4h8.6" fill="none" stroke="#232A30" stroke-width="0.6" stroke-linecap="round" stroke-linejoin="round"/></g><g transform="matrix(1 -.5 0 1 22.64 19.66)"><path d="M3 6V70" fill="none" stroke="#262D33" stroke-width="0.6" stroke-linecap="round" stroke-linejoin="round"/><path d="M5 10H11" fill="none" stroke="#262D33" stroke-width="0.7" stroke-linecap="round" stroke-linejoin="round"/><path d="M5 16H11" fill="none" stroke="#262D33" stroke-width="0.7" stroke-linecap="round" stroke-linejoin="round"/><path d="M5 22H11" fill="none" stroke="#262D33" stroke-width="0.7" stroke-linecap="round" stroke-linejoin="round"/><path d="M5 28H11" fill="none" stroke="#262D33" stroke-width="0.7" stroke-linecap="round" stroke-linejoin="round"/><path d="M5 34H11" fill="none" stroke="#262D33" stroke-width="0.7" stroke-linecap="round" stroke-linejoin="round"/><path d="M5 40H11" fill="none" stroke="#262D33" stroke-width="0.7" stroke-linecap="round" stroke-linejoin="round"/><path d="M5 46H11" fill="none" stroke="#262D33" stroke-width="0.7" stroke-linecap="round" stroke-linejoin="round"/><path d="M5 52H11" fill="none" stroke="#262D33" stroke-width="0.7" stroke-linecap="round" stroke-linejoin="round"/><path d="M5 58H11" fill="none" stroke="#262D33" stroke-width="0.7" stroke-linecap="round" stroke-linejoin="round"/><path d="M5 64H11" fill="none" stroke="#262D33" stroke-width="0.7" stroke-linecap="round" stroke-linejoin="round"/></g><path d="M20.4 12.7V7.7" fill="none" stroke="#0F6A61" stroke-width="1.2" stroke-linecap="round" stroke-linejoin="round"/><path d="M22.2 13.1V8.1" fill="none" stroke="#F26B1D" stroke-width="1.1" stroke-linecap="round" stroke-linejoin="round"/><path d="M23.8 12.7V7.7" fill="none" stroke="#F2C14E" stroke-width="1.1" stroke-linecap="round" stroke-linejoin="round"/></svg>