<svg xmlns="http://www.w3.org/2000/svg" viewBox="0 0 220 220" width="220" height="220"><title>Ollie (busted)</title><ellipse cx="112" cy="208" rx="60" ry="9.5" fill="#111418" opacity="0.12"/><path d="M92 181 97 177 103 177 103 193 98 197 92 197Z" fill="#083B36" stroke="#083B36" stroke-width="10" stroke-linejoin="round"/><path d="M92 181 98 181 103 177 97 177Z" fill="#0F6A61" stroke="#0F6A61" stroke-width="10" stroke-linejoin="round"/><rect x="87" y="176" width="16" height="26" rx="5" fill="#0A4C45"/><path d="M128 181 133 177 139 177 139 193 134 197 128 197Z" fill="#083B36" stroke="#083B36" stroke-width="10" stroke-linejoin="round"/><path d="M128 181 134 181 139 177 133 177Z" fill="#0F6A61" stroke="#0F6A61" stroke-width="10" stroke-linejoin="round"/><rect x="123" y="176" width="16" height="26" rx="5" fill="#0A4C45"/><path d="M84 201.5 89 197.5 105 197.5 105 198.5 100 202.5 84 202.5Z" fill="#111418" stroke="#111418" stroke-width="12" stroke-linejoin="round"/><path d="M84 201.5 100 201.5 105 197.5 89 197.5Z" fill="#5F6B76" stroke="#5F6B76" stroke-width="12" stroke-linejoin="round"/><rect x="78" y="195.5" width="28" height="13" rx="6" fill="#3A4149"/><rect x="82" y="198" width="13" height="2.2" rx="1.1" fill="#5F6B76" opacity=".8"/><path d="M120 201.5 125 197.5 141 197.5 141 198.5 136 202.5 120 202.5Z" fill="#111418" stroke="#111418" stroke-width="12" stroke-linejoin="round"/><path d="M120 201.5 136 201.5 141 197.5 125 197.5Z" fill="#5F6B76" stroke="#5F6B76" stroke-width="12" stroke-linejoin="round"/><rect x="114" y="195.5" width="28" height="13" rx="6" fill="#3A4149"/><rect x="118" y="198" width="13" height="2.2" rx="1.1" fill="#5F6B76" opacity=".8"/><path d="M82 140 91 133 147 133 147 165 138 172 82 172Z" fill="#083B36" stroke="#083B36" stroke-width="34.4" stroke-linejoin="round"/><path d="M82 140 91 133 147 133 147 165 138 172 82 172Z" fill="#0A4C45" stroke="#0A4C45" stroke-width="32" stroke-linejoin="round"/><path d="M82 140 138 140 147 133 91 133Z" fill="#3F8F86" stroke="#3F8F86" stroke-width="32" stroke-linejoin="round"/><rect x="66" y="124" width="88" height="64" rx="16" fill="#0F6A61"/><path d="M72 128H148" fill="none" stroke="#2F8279" stroke-width="2.4" stroke-linecap="round" stroke-linejoin="round"/><rect x="82" y="134" width="56" height="46" rx="12" fill="#0A4C45"/><rect x="82" y="132" width="56" height="45" rx="12" fill="#E7F1EF"/><rect x="86" y="136" width="48" height="3" rx="1.5" fill="#FFFFFF" opacity=".8"/><circle cx="110" cy="156.5" r="21" fill="#B9C5CC"/><circle cx="110" cy="155" r="21" fill="#E3E7EA"/><circle cx="110" cy="159" r="17.5" fill="#C2410C"/><circle cx="110" cy="155" r="17.5" fill="#F26B1D"/><path d="M96.5 149A15 15 0 0 1 108 140.8" fill="none" stroke="#FFC19A" stroke-width="3" stroke-linecap="round" stroke-linejoin="round"/><path d="M97.7 158.3 V152.1 H99.98 A1.65 1.65 0 0 1 99.98 155.41 H97.7 M99.98 155.41 L101.84 158.3M106.75 152.1 H103.13 V158.3 H106.75 M103.13 155.2 H106.23M111.76 153.13 C111.24 152.2 108.35 151.79 108.35 153.75 C108.35 155.41 111.86 154.89 111.86 156.75 C111.86 158.61 108.76 158.51 108.14 157.27M116.87 152.1 H113.25 V158.3 H116.87 M113.25 155.2 H116.35M118.16 152.1 H122.3 M120.23 152.1 V158.3" fill="none" stroke="#111418" stroke-width="1.75" stroke-linecap="round" stroke-linejoin="round"/><circle cx="88" cy="172" r="1.8" fill="#7FB8B0"/><circle cx="132" cy="172" r="1.8" fill="#7FB8B0"/><path d="M146 140l6 -4.6M146 147l6 -4.6M146 154l6 -4.6" fill="none" stroke="#083B36" stroke-width="2" stroke-linecap="round" stroke-linejoin="round"/><circle cx="70" cy="142" r="6.5" fill="#083B36"/><circle cx="70" cy="141" r="5" fill="#3F8F86"/><circle cx="160" cy="137" r="6" fill="#083B36"/><circle cx="160" cy="136" r="4.6" fill="#0F6A61"/><path d="M72 140Q40 136 34 104" fill="none" stroke="#083B36" stroke-width="13.5" stroke-linecap="round" stroke-linejoin="round"/><path d="M72 140Q40 136 34 104" fill="none" stroke="#0A4C45" stroke-width="10" stroke-linecap="round" stroke-linejoin="round"/><path d="M72 140Q40 136 34 104" fill="none" stroke="#3F8F86" stroke-width="10" stroke-linecap="round" stroke-linejoin="round" stroke-dasharray="1.6 4.2" opacity=".55"/><circle cx="34" cy="99.6" r="10" fill="#AEB8BF"/><circle cx="33" cy="98" r="10" fill="#C9D1D6"/><path d="M26.8 95A7 7 0 0 1 34 90.8" fill="none" stroke="#F6F8F9" stroke-width="2.6" stroke-linecap="round" stroke-linejoin="round"/><path d="M160 134Q192 130 193 100" fill="none" stroke="#083B36" stroke-width="13.5" stroke-linecap="round" stroke-linejoin="round"/><path d="M160 134Q192 130 193 100" fill="none" stroke="#0A4C45" stroke-width="10" stroke-linecap="round" stroke-linejoin="round"/><path d="M160 134Q192 130 193 100" fill="none" stroke="#3F8F86" stroke-width="10" stroke-linecap="round" stroke-linejoin="round" stroke-dasharray="1.6 4.2" opacity=".55"/><circle cx="194" cy="95.6" r="10" fill="#AEB8BF"/><circle cx="193" cy="94" r="10" fill="#C9D1D6"/><path d="M186.8 91A7 7 0 0 1 194 86.8" fill="none" stroke="#F6F8F9" stroke-width="2.6" stroke-linecap="round" stroke-linejoin="round"/><ellipse cx="114" cy="124" rx="42" ry="5" fill="#083B36" opacity=".35"/><ellipse cx="118" cy="45" rx="9" ry="4.2" fill="#083B36"/><ellipse cx="118" cy="43" rx="8" ry="3.6" fill="#3A4149"/><path d="M118 42V22" fill="none" stroke="#3A4149" stroke-width="4" stroke-linecap="round" stroke-linejoin="round"/><circle cx="118" cy="16" r="12.5" fill="#F26B1D" opacity="0.35"/><circle cx="118" cy="16" r="7.5" fill="#F26B1D"/><circle cx="115.6" cy="13.6" r="2.6" fill="#FFD2B3"/><path d="M101 12l-5 -3M135 12l5 -3M102 21l-6 1M134 21l6 1" fill="none" stroke="#C2410C" stroke-width="2.2" stroke-linecap="round" stroke-linejoin="round"/><path d="M70 68 79 61 159 61 159 97 150 104 70 104Z" fill="#083B36" stroke="#083B36" stroke-width="46.4" stroke-linejoin="round"/><path d="M70 68 79 61 159 61 159 97 150 104 70 104Z" fill="#0A4C45" stroke="#0A4C45" stroke-width="44" stroke-linejoin="round"/><path d="M70 68 150 68 159 61 79 61Z" fill="#3F8F86" stroke="#3F8F86" stroke-width="44" stroke-linejoin="round"/><rect x="48" y="46" width="124" height="80" rx="22" fill="#0F6A61"/><path d="M60 50H160" fill="none" stroke="#2F8279" stroke-width="2.4" stroke-linecap="round" stroke-linejoin="round"/><rect x="38" y="70" width="12" height="28" rx="5" fill="#083B36"/><rect x="39" y="72" width="9" height="24" rx="4.5" fill="#3F8F86"/><rect x="40.5" y="76" width="3" height="12" rx="1.5" fill="#6FB0A7"/><path d="M178 66l5 -4v26l-5 4Z" fill="#083B36" stroke="#083B36" stroke-width="4" stroke-linejoin="round"/><rect x="57" y="53" width="106" height="64" rx="16" fill="#083B36"/><rect x="60" y="56" width="100" height="58" rx="13" fill="#0E2A2B"/><circle cx="87" cy="87" r="11.5" fill="none" stroke="#C4F5EC" stroke-width="3.6"/><circle cx="88.5" cy="88" r="4" fill="#C4F5EC"/><circle cx="127" cy="87" r="11.5" fill="none" stroke="#C4F5EC" stroke-width="3.6"/><circle cx="128.5" cy="88" r="4" fill="#C4F5EC"/><ellipse cx="107" cy="106" rx="4.6" ry="5.4" fill="none" stroke="#C4F5EC" stroke-width="3.2"/><path d="M150 60L159 75.5H141Z" fill="#F26B1D" stroke="#F26B1D" stroke-width="3" stroke-linejoin="round"/><path d="M149.47 64 V69.47 M149.47 72.06 V72.2" fill="none" stroke="#111418" stroke-width="2.5" stroke-linecap="round" stroke-linejoin="round"/><path d="M66 70Q66 60 76 60H112L78 108H70Q66 108 66 100Z" fill="#FFFFFF" opacity=".05"/><circle cx="56" cy="54" r="2.2" fill="#0A4C45"/><circle cx="164" cy="54" r="2.2" fill="#0A4C45"/><circle cx="56" cy="116" r="2.2" fill="#0A4C45"/><circle cx="164" cy="116" r="2.2" fill="#0A4C45"/><path d="M103.52 118.3 A1.39 2.1 0 0 0 103.52 122.5 A1.39 2.1 0 0 0 103.52 118.3 Z M106.74 118.3 V122.5 H108.67 M110.34 118.3 V122.5 H112.27 M113.93 118.3 V122.5 M117.87 118.3 H115.77 V122.5 H117.87 M115.77 120.4 H117.53" fill="none" stroke="#D3E6E2" stroke-width="1.25" stroke-linecap="round" stroke-linejoin="round" opacity=".9"/><path d="M38 52q-7 10 -7 15a7 7 0 0 0 14 0q0 -5 -7 -15Z" fill="#8FD3F0"/><path d="M36 63a3 3 0 0 0 2 4" fill="none" stroke="#FFFFFF" stroke-width="1.6" stroke-linecap="round" stroke-linejoin="round"/><path d="M20 92l-5 -3M18 102l-6 0M206 88l5 -3M208 98l6 0" fill="none" stroke="#3F8F86" stroke-width="2.2" stroke-linecap="round" stroke-linejoin="round"/></svg>