<svg xmlns="http://www.w3.org/2000/svg" viewBox="0 0 220 220" width="220" height="220"><ellipse cx="112" cy="208" rx="40" ry="7" fill="#111418" opacity="0.12"/><circle cx="110" cy="189.4" r="20.3" fill="#111418"/><circle cx="110" cy="189.4" r="19" fill="#2B3238"/><g transform="rotate(18 110 189.4)"><path d="M91 186.8Q110 194.8 129 186.8V192.8Q110 200.8 91 192.8Z" fill="#0F6A61"/><path d="M91 186.8Q110 194.8 129 186.8V188.2Q110 196.2 91 188.2Z" fill="#3F8F86"/></g><path d="M113.8 170.4A19 19 0 0 1 129 189.4A19 19 0 0 1 118.74 206.31A23.75 23.75 0 0 0 113.8 170.4Z" fill="#111418" opacity=".22"/><path d="M96.32 185.6A14.44 14.44 0 0 1 106.2 175.72" fill="none" stroke="#5F6B76" stroke-width="3" stroke-linecap="round" stroke-linejoin="round"/><g transform="rotate(-6 110 172)"><path d="M74 146Q38 142 26 114" fill="none" stroke="#111418" stroke-width="13.5" stroke-linecap="round" stroke-linejoin="round"/><path d="M74 146Q38 142 26 114" fill="none" stroke="#2B3238" stroke-width="10" stroke-linecap="round" stroke-linejoin="round"/><path d="M74 146Q38 142 26 114" fill="none" stroke="#6B7780" stroke-width="10" stroke-linecap="round" stroke-linejoin="round" stroke-dasharray="1.6 4.2" opacity=".6"/><circle cx="25.03" cy="111" r="10" fill="#AEB8BF"/><circle cx="24.03" cy="109.4" r="10" fill="#C9D1D6"/><path d="M17.83 106.4A7 7 0 0 1 25.03 102.2" fill="none" stroke="#F6F8F9" stroke-width="2.6" stroke-linecap="round" stroke-linejoin="round"/><path d="M146 142Q186 136 196 108" fill="none" stroke="#111418" stroke-width="13.5" stroke-linecap="round" stroke-linejoin="round"/><path d="M146 142Q186 136 196 108" fill="none" stroke="#2B3238" stroke-width="10" stroke-linecap="round" stroke-linejoin="round"/><path d="M146 142Q186 136 196 108" fill="none" stroke="#6B7780" stroke-width="10" stroke-linecap="round" stroke-linejoin="round" stroke-dasharray="1.6 4.2" opacity=".6"/><circle cx="198.68" cy="104.89" r="10" fill="#AEB8BF"/><circle cx="197.68" cy="103.29" r="10" fill="#C9D1D6"/><path d="M191.48 100.29A7 7 0 0 1 198.68 96.09" fill="none" stroke="#F6F8F9" stroke-width="2.6" stroke-linecap="round" stroke-linejoin="round"/><ellipse cx="111" cy="178.4" rx="24" ry="7" fill="#111418"/><ellipse cx="111" cy="177.2" rx="22.4" ry="5.8" fill="#3A4149"/><ellipse cx="109.6" cy="176.4" rx="17" ry="3" fill="#5F6B76"/><path d="M82 140 89 135 145 135 138 162 131 167 89 167Z" fill="#111418" stroke="#111418" stroke-width="27.2" stroke-linejoin="round"/><path d="M82 140 89 135 145 135 138 162 131 167 89 167Z" fill="#C9521A" stroke="#C9521A" stroke-width="24.8" stroke-linejoin="round"/><path d="M82 140 138 140 145 135 89 135Z" fill="#FFA066" stroke="#FFA066" stroke-width="24.8" stroke-linejoin="round"/><path d="M82 140 138 140 131 167 89 167Z" fill="#F47B35" stroke="#F47B35" stroke-width="24.8" stroke-linejoin="round"/><path d="M82 131.4H138" fill="none" stroke="#FFB585" stroke-width="2.2" stroke-linecap="round" stroke-linejoin="round" opacity=".9"/><path d="M0 -4.6l1.35 2.75 3.05 .45 -2.2 2.15 .5 3.05L0 2.35l-2.7 1.45 .5-3.05-2.2-2.15 3.05-.45Z" fill="#F2C14E" stroke="#FFFFFF" stroke-width="1.3" stroke-linejoin="round" transform="translate(76.4 160) rotate(-14)"/><path d="M141.4 154.4 145.6 152 149.8 154.4 149.8 159.2 145.6 161.6 141.4 159.2Z" fill="#0F6A61" stroke="#FFFFFF" stroke-width="1.3" stroke-linejoin="round"/><path d="M143.8 157l1.3 1.3l2.6 -2.6" fill="none" stroke="#FFFFFF" stroke-width="1.1" stroke-linecap="round" stroke-linejoin="round"/><rect x="83" y="138.6" width="54" height="33" rx="7" fill="#111418" opacity=".25"/><rect x="83" y="136.4" width="54" height="33" rx="7" fill="#1C2126"/><rect x="84.6" y="138" width="50.8" height="29.8" rx="5.6" fill="#111418"/><rect x="88.4" y="143.4" width="43.2" height="23" rx="5" fill="#C2410C"/><rect x="88.4" y="140" width="43.2" height="23" rx="5" fill="#F26B1D"/><rect x="91.4" y="142" width="37.2" height="17" rx="3.6" fill="#F7864A"/><path d="M92.80000000000001 146.4A3 3 0 0 1 95.80000000000001 143.4" fill="none" stroke="#FFC19A" stroke-width="1.6" stroke-linecap="round" stroke-linejoin="round"/><path d="M98.71 148.42 C98.3 147.61 97.69 147.2 97.08 147.2 C96.13 147.2 95.58 147.88 95.58 148.9 C95.58 151.01 98.85 150.19 98.85 152.23 C98.85 153.32 98.17 154 97.15 154 C96.4 154 95.79 153.59 95.45 152.78 M100.62 147.2 V154 M104.15 147.2 V154 M100.62 150.6 H104.15 M106.46 147.2 V154 M108.78 154 V147.2 H110.54 A1.63 1.7 0 0 1 110.54 150.6 H108.78 M118.57 147.2 V154 M120.88 147.2 H124.55 M122.72 147.2 V154" fill="none" stroke="#111418" stroke-width="1.95" stroke-linecap="round" stroke-linejoin="round"/><rect x="88.6" y="117.4" width="44" height="15" rx="7" fill="#111418"/><rect x="90" y="118.6" width="41.2" height="12.4" rx="6" fill="#3A4149"/><rect x="90" y="118.6" width="41.2" height="4.2" rx="2.1" fill="#5F6B76"/><rect x="92.4" y="120" width="7" height="9.6" rx="3" fill="#6B7780"/><rect x="121.8" y="120" width="7" height="9.6" rx="3" fill="#2B3238"/><g transform="translate(-2 -11) rotate(-9 110 70)"><rect x="171.3" y="56.7" width="14.6" height="40.6" rx="7.3" fill="#111418"/><rect x="172.6" y="58" width="12" height="38" rx="6" fill="#083B36"/></g><path d="M64 60 72 54 164 54 164 100 156 106 64 106Z" fill="#111418" stroke="#111418" stroke-width="30.4" stroke-linejoin="round"/><path d="M64 60 72 54 164 54 164 100 156 106 64 106Z" fill="#C9521A" stroke="#C9521A" stroke-width="28" stroke-linejoin="round"/><path d="M64 60 156 60 164 54 72 54Z" fill="#FFA066" stroke="#FFA066" stroke-width="28" stroke-linejoin="round"/><rect x="50" y="46" width="120" height="74" rx="14" fill="#F47B35"/><path d="M62 49.4H158" fill="none" stroke="#FFB585" stroke-width="2.4" stroke-linecap="round" stroke-linejoin="round"/><rect x="57.4" y="55" width="105.2" height="60" rx="8" fill="#111418" opacity=".16"/><rect x="58" y="53" width="104" height="60" rx="8" fill="#0E2A2B" stroke="#B24714" stroke-width="1.6"/><path d="M58.8 64V61A7.2 7.2 0 0 1 66 53.8H154A7.2 7.2 0 0 1 161.2 61V64Z" fill="#16393A"/><circle cx="66.4" cy="58.9" r="2.1" fill="#F26B1D"/><circle cx="73" cy="58.9" r="2.1" fill="#F2C14E"/><circle cx="79.6" cy="58.9" r="2.1" fill="#43E0C4"/><path d="M102.12 61.2 V56.8 H103.27 A1.06 1.1 0 0 1 103.27 59 H102.12 M106.26 56.8 V61.2 M108.2 61.2 V56.8 H109.34 A1.06 1.1 0 0 1 109.34 59 H108.2 M114 56.8 H111.98 V61.2 H114 M111.98 59 H113.65 M115.59 61.2 V56.8 H116.73 A1.06 1.1 0 0 1 116.73 59 H115.59 M116.64 59 L117.88 61.2" fill="none" stroke="#D3E6E2" stroke-width="1.25" stroke-linecap="round" stroke-linejoin="round" opacity=".95"/><g transform="translate(0 -4)"><circle cx="89" cy="87" r="10.6" fill="none" stroke="#C4F5EC" stroke-width="3.6"/><circle cx="90.2" cy="88" r="3.8" fill="#C4F5EC"/><circle cx="131" cy="87" r="10.6" fill="none" stroke="#C4F5EC" stroke-width="3.6"/><circle cx="132.2" cy="88" r="3.8" fill="#C4F5EC"/><ellipse cx="110.6" cy="107" rx="4.2" ry="4.8" fill="none" stroke="#C4F5EC" stroke-width="3.2"/><rect x="66.5" y="101" width="9" height="3.6" rx="1.8" fill="#F26B1D" opacity=".8"/><rect x="144.5" y="101" width="9" height="3.6" rx="1.8" fill="#F26B1D" opacity=".8"/></g><path d="M64 69H92L70 108Q63 107 63 101Z" fill="#FFFFFF" opacity=".05"/><g transform="rotate(-8 150 119)"><rect x="137" y="113.6" width="24" height="10" rx="3" fill="#FFFFFF"/><rect x="137" y="113.6" width="24" height="10" rx="3" fill="none" stroke="#C9D1D6" stroke-width="0.6"/><path d="M146.2 116.81 L143.85 118.6 L146.2 120.39 M150.12 115.8 L147.88 121.4 M151.8 116.81 L154.15 118.6 L151.8 120.39" fill="none" stroke="#0F6A61" stroke-width="1.5" stroke-linecap="round" stroke-linejoin="round"/></g><circle cx="174.6" cy="70" r="3.6" fill="#FFFFFF"/><circle cx="174.6" cy="70" r="2.6" fill="#3F8F86"/><g transform="translate(-2 -11) rotate(-9 110 70)"><path d="M46 88C41 44 72 22 110 22C148 22 174 36 178.4 78" fill="none" stroke="#111418" stroke-width="11.5" stroke-linecap="round" stroke-linejoin="round"/><path d="M46 88C41 44 72 22 110 22C148 22 174 36 178.4 78" fill="none" stroke="#2B3238" stroke-width="8" stroke-linecap="round" stroke-linejoin="round"/><path d="M53 58C60 38 82 27.6 104 26.6" fill="none" stroke="#5F6B76" stroke-width="2.4" stroke-linecap="round" stroke-linejoin="round" opacity=".9"/><path d="M86 27.2C99 24.4 121 24.4 134 27.6" fill="none" stroke="#111418" stroke-width="12.4" stroke-linecap="round" stroke-linejoin="round"/><path d="M86 27.2C99 24.4 121 24.4 134 27.6" fill="none" stroke="#3A4149" stroke-width="9" stroke-linecap="round" stroke-linejoin="round"/><path d="M90 25.2C101 23.4 114 23.2 123 24" fill="none" stroke="#6B7780" stroke-width="2" stroke-linecap="round" stroke-linejoin="round" opacity=".8"/><rect x="35.7" y="62.7" width="18.6" height="40.6" rx="9.3" fill="#111418"/><rect x="37" y="64" width="16" height="38" rx="8" fill="#0F6A61"/><rect x="39.4" y="68" width="4" height="26" rx="2" fill="#3F8F86"/><circle cx="46" cy="83" r="3.2" fill="#F26B1D"/><circle cx="45.2" cy="82.1" r="1.1" fill="#FFD2B3"/></g></g><path d="M40 46q-7 10 -7 15a7 7 0 0 0 14 0q0 -5 -7 -15Z" fill="#8FD3F0"/><path d="M38 57a3 3 0 0 0 2 4" fill="none" stroke="#FFFFFF" stroke-width="1.6" stroke-linecap="round" stroke-linejoin="round"/><path d="M12 88l-5 -3M11 98h-6M208 84l5 -3M210 94h6" fill="none" stroke="#3F8F86" stroke-width="2.2" stroke-linecap="round" stroke-linejoin="round"/><path d="M40 40l-6 -5M46 30l-4 -6M184 30l6 -5M178 21l4 -6" fill="none" stroke="#6B7780" stroke-width="2.2" stroke-linecap="round" stroke-linejoin="round"/><path d="M138 207.4h26M146 203.6h14" fill="none" stroke="#111418" stroke-width="2.4" stroke-linecap="round" stroke-linejoin="round" opacity=".5"/><circle cx="150" cy="196" r="4.4" fill="#E3E7EA"/><circle cx="155" cy="194" r="5.4" fill="#E3E7EA"/><circle cx="160" cy="196" r="3.8" fill="#E3E7EA"/></svg>