<svg xmlns="http://www.w3.org/2000/svg" viewBox="0 0 52 66" width="52" height="66"><ellipse cx="27" cy="60.6" rx="10.5" ry="3.3" fill="#111418" opacity="0.15"/><path d="M6 58.6h6M3.4 55.4h5" fill="none" stroke="#3F8F86" stroke-width="0.9" stroke-linecap="round" stroke-linejoin="round" opacity=".7"/><circle cx="27" cy="53.2" r="6.7" fill="#111418"/><circle cx="27" cy="53.2" r="6.2" fill="#2B3238"/><path d="M20.8 53.6Q27 56.400000000000006 33.2 52V54.2Q27 58.6 20.8 55.800000000000004Z" fill="#0F6A61"/><path d="M22.8 51.400000000000006a4.4 4.4 0 0 1 2.6 -2.8" fill="none" stroke="#5F6B76" stroke-width="1.1" stroke-linecap="round" stroke-linejoin="round"/><g transform="rotate(4 27 47)"><path d="M37.6 40.6q4.4 2.2 5 8.6" fill="none" stroke="#111418" stroke-width="3.9" stroke-linecap="round" stroke-linejoin="round"/><path d="M37.6 40.6q4.4 2.2 5 8.6" fill="none" stroke="#2B3238" stroke-width="2.5" stroke-linecap="round" stroke-linejoin="round"/><circle cx="42.8" cy="50.6" r="2.6" fill="#C9D1D6"/><ellipse cx="27.4" cy="47.6" rx="8.4" ry="2.4" fill="#111418"/><path d="M20.8 37.2 30 37.2 32.4 39 32.4 43.8 23.2 43.8 20.8 42Z" fill="#111418" stroke="#111418" stroke-width="8.2" stroke-linejoin="round"/><path d="M20.8 37.2 30 37.2 32.4 39 32.4 43.8 23.2 43.8 20.8 42Z" fill="#E0621F" stroke="#E0621F" stroke-width="7.2" stroke-linejoin="round"/><path d="M23.2 39 32.4 39 30 37.2 20.8 37.2Z" fill="#FFA066" stroke="#FFA066" stroke-width="7.2" stroke-linejoin="round"/><rect x="19.6" y="35.4" width="16.4" height="12" rx="3.6" fill="#F47B35"/><rect x="23.2" y="38.8" width="10.4" height="7" rx="1.8" fill="#1C2126"/><rect x="24.4" y="39.8" width="8" height="4.6" rx="1.2" fill="#C2410C"/><rect x="24.4" y="39.4" width="8" height="4.4" rx="1.2" fill="#F26B1D"/><rect x="25.2" y="40" width="2" height="0.9" rx="0.45" fill="#FFC19A"/><path d="M20.6 44.2l.5 1 1.1.2-.8.8.2 1.1-1-.5-1 .5.2-1.1-.8-.8 1.1-.2Z" fill="#F2C14E"/><rect x="22.8" y="32.6" width="11.4" height="4" rx="1.8" fill="#111418"/><rect x="23.4" y="33.1" width="10.2" height="3" rx="1.4" fill="#3A4149"/><rect x="40.2" y="17.6" width="3.6" height="10.6" rx="1.8" fill="#111418"/><rect x="40.8" y="18.2" width="2.4" height="9.4" rx="1.2" fill="#083B36"/><path d="M15.2 15.8 35.4 15.8 38.4 18.2 38.4 29.6 18.2 29.6 15.2 27.2Z" fill="#111418" stroke="#111418" stroke-width="8.2" stroke-linejoin="round"/><path d="M15.2 15.8 35.4 15.8 38.4 18.2 38.4 29.6 18.2 29.6 15.2 27.2Z" fill="#E0621F" stroke="#E0621F" stroke-width="7.2" stroke-linejoin="round"/><path d="M18.2 18.2 38.4 18.2 35.4 15.8 15.2 15.8Z" fill="#FFA066" stroke="#FFA066" stroke-width="7.2" stroke-linejoin="round"/><rect x="14.6" y="14.6" width="27.4" height="18.6" rx="3.6" fill="#F47B35"/><rect x="17" y="16.8" width="23" height="14.2" rx="2.2" fill="#0E2A2B" stroke="#B24714" stroke-width="0.5"/><path d="M17.3 19.6V18.9A1.9 1.9 0 0 1 19.2 17.1H37.8A1.9 1.9 0 0 1 39.7 18.9V19.6Z" fill="#16393A"/><circle cx="19.1" cy="18.35" r="0.55" fill="#F26B1D"/><circle cx="20.8" cy="18.35" r="0.55" fill="#F2C14E"/><circle cx="22.5" cy="18.35" r="0.55" fill="#43E0C4"/><rect x="23.8" y="21.4" width="3.6" height="5" rx="1.6" fill="#C4F5EC"/><rect x="31.8" y="21.4" width="3.6" height="5" rx="1.6" fill="#C4F5EC"/><path d="M31.4 20.6 36 20.6 36 22.4 31.4 22.8Z" fill="#0E2A2B"/><rect x="24.4" y="22.2" width="1.3" height="1.8" rx="0.65" fill="#FFFFFF"/><rect x="32.4" y="23.2" width="1.3" height="1.6" rx="0.65" fill="#FFFFFF"/><path d="M26.6 27.8q2.8 1.8 5.6 -.2" fill="none" stroke="#C4F5EC" stroke-width="1.3" stroke-linecap="round" stroke-linejoin="round"/><rect x="33.3" y="27.2" width="1.6" height="0.9" rx="0.2" fill="#C4F5EC"/><rect x="19.6" y="27" width="2.4" height="1.2" rx="0.6" fill="#F26B1D" opacity=".8"/><rect x="36.6" y="27" width="2.2" height="1.2" rx="0.6" fill="#F26B1D" opacity=".8"/><g transform="rotate(-8 35.6 32.4)"><rect x="32.6" y="30.9" width="6.2" height="3" rx="0.9" fill="#FFFFFF"/><path d="M34.6 31.7l-.9 .7l.9 .7M36.8 31.7l.9 .7l-.9 .7" fill="none" stroke="#0F6A61" stroke-width="0.45" stroke-linecap="round" stroke-linejoin="round"/></g><path d="M11.6 22C11 13 17.4 8.4 27.4 8.4C35.4 8.4 41.2 11.4 42 18" fill="none" stroke="#111418" stroke-width="3.4" stroke-linecap="round" stroke-linejoin="round"/><path d="M11.6 22C11 13 17.4 8.4 27.4 8.4C35.4 8.4 41.2 11.4 42 18" fill="none" stroke="#2B3238" stroke-width="2.1" stroke-linecap="round" stroke-linejoin="round"/><path d="M13 16.4C14.6 12 18.6 10 23.6 9.6" fill="none" stroke="#5F6B76" stroke-width="0.7" stroke-linecap="round" stroke-linejoin="round"/><rect x="8" y="19.6" width="5.4" height="11.8" rx="2.7" fill="#111418"/><rect x="8.5" y="20.1" width="4.4" height="10.8" rx="2.2" fill="#0F6A61"/><rect x="9.1" y="21.4" width="1.1" height="6" rx="0.55" fill="#3F8F86"/><circle cx="10.6" cy="25.4" r="1.25" fill="#F26B1D"/><path d="M19.4 40.4q-4.6 2.4 -5 8.8" fill="none" stroke="#111418" stroke-width="3.9" stroke-linecap="round" stroke-linejoin="round"/><path d="M19.4 40.4q-4.6 2.4 -5 8.8" fill="none" stroke="#2B3238" stroke-width="2.5" stroke-linecap="round" stroke-linejoin="round"/><circle cx="14.2" cy="50.8" r="2.8" fill="#C9D1D6"/></g></svg>