<svg xmlns="http://www.w3.org/2000/svg" viewBox="0 0 44 58" width="44" height="58"><title>Poster: Trust, but verify</title><g transform="matrix(1 .5 0 1 4 1)"><rect x="1" y="1.4" width="36" height="38" rx="0.8" fill="#111418" opacity=".1"/><rect x="0" y="0" width="36" height="38" rx="0.8" fill="#FFFFFF"/><rect x="0" y="0" width="36" height="38" rx="0.8" fill="none" stroke="#E3E7EA" stroke-width=".5"/><rect x="2.4" y="2.4" width="31.2" height="21" rx="0.4" fill="#0A4C45"/><path d="M7 4.92Q7.62 6.38 9.08 7Q7.62 7.62 7 9.08Q6.38 7.62 4.92 7Q6.38 6.38 7 4.92Z" fill="#7FB8B0"/><path d="M29 6.4Q29.48 7.52 30.6 8Q29.48 8.48 29 9.6Q28.52 8.48 27.4 8Q28.52 7.52 29 6.4Z" fill="#7FB8B0"/><path d="M27 17.32Q27.38 18.22 28.28 18.6Q27.38 18.98 27 19.88Q26.62 18.98 25.72 18.6Q26.62 18.22 27 17.32Z" fill="#7FB8B0"/><path d="M8 16.56Q8.43 17.57 9.44 18Q8.43 18.43 8 19.44Q7.57 18.43 6.56 18Q7.57 17.57 8 16.56Z" fill="#7FB8B0"/><rect x="11.5" y="8" width="11" height="9" rx="2.4" fill="#3F8F86"/><rect x="13" y="9.5" width="8" height="5.6" rx="1.4" fill="#0E2A2B"/><rect x="14.5" y="11" width="1.4" height="2.2" rx="0.7" fill="#C4F5EC"/><rect x="18" y="11" width="1.4" height="2.2" rx="0.7" fill="#C4F5EC"/><path d="M17 8v-2.2" fill="none" stroke="#D3E6E2" stroke-width="0.8" stroke-linecap="round" stroke-linejoin="round"/><circle cx="17" cy="5.4" r="1" fill="#F26B1D"/><rect x="12.8" y="17" width="8.4" height="5" rx="1.6" fill="#3F8F86"/><circle cx="17" cy="19.3" r="1.5" fill="#F26B1D"/><circle cx="25.4" cy="13.2" r="3.4" fill="none" stroke="#FFFFFF" stroke-width="1.1"/><circle cx="25.4" cy="13.2" r="2.6" fill="#D3E6E2" opacity=".35"/><path d="M23.2 15.8 21.4 18.4" fill="none" stroke="#F26B1D" stroke-width="1.3" stroke-linecap="round" stroke-linejoin="round"/><path d="M9.87 26.2 H12.27 M11.07 26.2 V29.8M13.05 29.8 V26.2 H14.37 A0.96 0.96 0 0 1 14.37 28.12 H13.05 M14.37 28.12 L15.45 29.8M16.23 26.2 V28.6 A1.2 1.2 0 0 0 18.63 28.6 V26.2M21.57 26.8 C21.27 26.26 19.59 26.02 19.59 27.16 C19.59 28.12 21.63 27.82 21.63 28.9 C21.63 29.98 19.83 29.92 19.47 29.2M22.47 26.2 H24.87 M23.67 26.2 V29.8M26.01 29.44 L25.71 30.4" fill="none" stroke="#111418" stroke-width="0.95" stroke-linecap="round" stroke-linejoin="round"/><path d="M4.89 33.8 H6.21 A0.9 0.9 0 0 0 6.21 32 H4.89 V35.6 H6.39 A0.9 0.9 0 0 0 6.39 33.8M7.95 32 V34.4 A1.2 1.2 0 0 0 10.35 34.4 V32M11.01 32 H13.41 M12.21 32 V35.6M16.05 32 L17.31 35.6 L18.57 32M21.33 32 H19.23 V35.6 H21.33 M19.23 33.8 H21.03M21.99 35.6 V32 H23.31 A0.96 0.96 0 0 1 23.31 33.92 H21.99 M23.31 33.92 L24.39 35.6M25.17 32 V35.6M28.05 32 H25.95 V35.6 M25.95 33.8 H27.75M28.71 32 L29.91 33.8 L31.11 32 M29.91 33.8 V35.6" fill="none" stroke="#0F6A61" stroke-width="0.95" stroke-linecap="round" stroke-linejoin="round"/><circle cx="3.4" cy="3.4" r="1.4" fill="#F26B1D"/><circle cx="32.6" cy="3.4" r="1.4" fill="#F26B1D"/></g></svg>