<svg xmlns="http://www.w3.org/2000/svg" viewBox="0 0 30 34" width="30" height="34"><title>Wall clock</title><g transform="matrix(1 .5 0 1 2.5 -1.75)"><circle cx="13.7" cy="12.3" r="12.6" fill="#3A4149"/><circle cx="13.1" cy="12.5" r="12.6" fill="#0A4C45"/><circle cx="12.5" cy="12.5" r="12.4" fill="#0F6A61"/><circle cx="12.5" cy="12.5" r="10.2" fill="#FFFFFF"/><path d="M12.5 5.3L12.5 3.3M16.6 5.4L17.1 4.53M19.6 8.4L20.47 7.9M19.7 12.5L21.7 12.5M19.6 16.6L20.47 17.1M16.6 19.6L17.1 20.47M12.5 19.7L12.5 21.7M8.4 19.6L7.9 20.47M5.4 16.6L4.53 17.1M5.3 12.5L3.3 12.5M5.4 8.4L4.53 7.9M8.4 5.4L7.9 4.53" fill="none" stroke="#3A4149" stroke-width="0.8" stroke-linecap="round" stroke-linejoin="round"/><path d="M12.5 12.5 15.19 16.72" fill="none" stroke="#111418" stroke-width="1.6" stroke-linecap="round" stroke-linejoin="round"/><path d="M12.5 12.5 8.6 5.75" fill="none" stroke="#111418" stroke-width="1.1" stroke-linecap="round" stroke-linejoin="round"/><path d="M11.25 14.06 17.51 6.26" fill="none" stroke="#F26B1D" stroke-width="0.6" stroke-linecap="round" stroke-linejoin="round"/><circle cx="12.5" cy="12.5" r="1.1" fill="#F26B1D"/><path d="M4.5 9.5A8.6 8.6 0 0 1 10.5 4.1" fill="none" stroke="#E3E7EA" stroke-width="1.2" stroke-linecap="round" stroke-linejoin="round" opacity=".9"/></g></svg>